<svg width="16" height="16" viewBox="0 0 16 16" fill="none" xmlns="http://www.w3.org/2000/svg">
<g id="check-circle-2" clip-path="url(#clip0_574_99201)">
<g id="Vector">
<path d="M6.86209 9.80451C6.99209 9.93451 7.16275 9.99984 7.33342 9.99984C7.50409 9.99984 7.67475 9.93451 7.80475 9.80451L10.4714 7.13784C10.7321 6.87717 10.7321 6.45584 10.4714 6.19517C10.2108 5.93451 9.78942 5.93451 9.52875 6.19517L7.33342 8.39051L6.47142 7.52851C6.21075 7.26784 5.78942 7.26784 5.52875 7.52851C5.26809 7.78917 5.26809 8.21051 5.52875 8.47117L6.86209 9.80451Z" fill="#18A94D"/>
<path fill-rule="evenodd" clip-rule="evenodd" d="M0.666748 7.99984C0.666748 12.0432 3.95675 15.3332 8.00008 15.3332C12.0434 15.3332 15.3334 12.0432 15.3334 7.99984C15.3334 3.9565 12.0434 0.666504 8.00008 0.666504C3.95675 0.666504 0.666748 3.9565 0.666748 7.99984ZM2.00008 7.99984C2.00008 4.69184 4.69208 1.99984 8.00008 1.99984C11.3087 1.99984 14.0001 4.69184 14.0001 7.99984C14.0001 11.3085 11.3087 13.9998 8.00008 13.9998C4.69208 13.9998 2.00008 11.3085 2.00008 7.99984Z" fill="#18A94D"/>
</g>
</g>
<defs>
<clipPath id="clip0_574_99201">
<rect width="16" height="16" fill="white"/>
</clipPath>
</defs>
</svg>
