<svg width="16" height="16" viewBox="0 0 16 16" fill="none" xmlns="http://www.w3.org/2000/svg">
<g id="fluent:add-20-regular">
<path id="Vector" d="M7.99985 1.99998C7.99985 1.89389 7.95771 1.79215 7.8827 1.71713C7.80768 1.64212 7.70594 1.59998 7.59985 1.59998C7.49377 1.59998 7.39202 1.64212 7.31701 1.71713C7.242 1.79215 7.19985 1.89389 7.19985 1.99998V7.19998H1.99985C1.89377 7.19998 1.79203 7.24212 1.71701 7.31713C1.642 7.39215 1.59985 7.49389 1.59985 7.59998C1.59985 7.70606 1.642 7.8078 1.71701 7.88282C1.79203 7.95783 1.89377 7.99998 1.99985 7.99998H7.19985V13.2C7.19985 13.3061 7.242 13.4078 7.31701 13.4828C7.39202 13.5578 7.49377 13.6 7.59985 13.6C7.70594 13.6 7.80768 13.5578 7.8827 13.4828C7.95771 13.4078 7.99985 13.3061 7.99985 13.2V7.99998H13.1999C13.3059 7.99998 13.4077 7.95783 13.4827 7.88282C13.5577 7.8078 13.5999 7.70606 13.5999 7.59998C13.5999 7.49389 13.5577 7.39215 13.4827 7.31713C13.4077 7.24212 13.3059 7.19998 13.1999 7.19998H7.99985V1.99998Z" fill="#252F40"/>
</g>
</svg>
