<svg width="14" height="14" viewBox="0 0 14 14" fill="none" xmlns="http://www.w3.org/2000/svg">
<g id="Task Checklist Add" clip-path="url(#clip0_1583_87110)">
<g id="mas">
<path id="Vector" d="M6.81133 13.7119C3.05338 13.7292 -0.0349423 10.6524 -0.0580326 6.88293C-0.0753503 3.13076 2.99566 0.0193444 6.73051 0.0020267C10.5462 -0.015291 13.6287 3.02685 13.6576 6.83098C13.6749 10.6005 10.5981 13.6946 6.81133 13.7119ZM6.79978 0.729371C3.4286 0.717825 0.680856 3.45402 0.669311 6.81943C0.663539 10.2195 3.37665 12.9672 6.76514 12.9845C10.1594 12.9961 12.9187 10.2657 12.9245 6.8887C12.9302 3.47134 10.2171 0.740916 6.79978 0.729371ZM6.09553 6.49617C5.27582 6.49617 4.46189 6.49617 3.64218 6.49617C3.41705 6.49617 3.2381 6.55389 3.1977 6.80789C3.15729 7.05033 3.33047 7.21774 3.62487 7.21774C4.44457 7.22351 5.2585 7.21774 6.07821 7.21774C6.18789 7.21774 6.29757 7.21774 6.43611 7.21774C6.43611 7.36783 6.43611 7.47173 6.43611 7.57564C6.43611 8.3838 6.43611 9.19196 6.43611 10.0001C6.43611 10.3061 6.55733 10.4562 6.78823 10.4562C7.02491 10.4562 7.14613 10.3118 7.15191 10.0059C7.15191 9.18619 7.15191 8.37225 7.15191 7.55255C7.15191 7.44864 7.15191 7.35051 7.15191 7.21774C7.28468 7.21774 7.37704 7.21774 7.4694 7.21774C8.29488 7.21774 9.12035 7.21774 9.9516 7.21774C10.246 7.21774 10.4134 7.0792 10.3961 6.84829C10.373 6.58276 10.2056 6.49617 9.95738 6.49617C9.13767 6.49617 8.32374 6.49617 7.50403 6.49617C7.39436 6.49617 7.2789 6.48462 7.14613 6.47885C7.14613 6.34608 7.14613 6.24217 7.14613 6.1325C7.14613 5.36474 7.14613 4.59699 7.14613 3.82347C7.14613 3.41362 7.04223 3.24621 6.79401 3.24044C6.54001 3.23467 6.43034 3.40784 6.43034 3.81192C6.43034 4.51618 6.43034 5.21466 6.43034 5.91891C6.43034 6.09786 6.43034 6.27681 6.43034 6.47885C6.30334 6.4904 6.19943 6.49617 6.09553 6.49617Z" fill="black"/>
</g>
</g>
<defs>
<clipPath id="clip0_1583_87110">
<rect width="13.7143" height="13.7143" fill="white"/>
</clipPath>
</defs>
</svg>
