<svg width="15" height="14" viewBox="0 0 15 14" fill="none" xmlns="http://www.w3.org/2000/svg">
<g clip-path="url(#clip0_1031_38932)">
<path d="M7.49918 13.1712C9.13584 13.1712 10.7055 12.521 11.8628 11.3637C13.0201 10.2065 13.6702 8.63682 13.6702 7.00015C13.6702 5.36349 13.0201 3.79386 11.8628 2.63656C10.7055 1.47926 9.13584 0.829102 7.49918 0.829102C5.86251 0.829102 4.29288 1.47926 3.13558 2.63656C1.97829 3.79386 1.32812 5.36349 1.32812 7.00015C1.32812 8.63682 1.97829 10.2065 3.13558 11.3637C4.29288 12.521 5.86251 13.1712 7.49918 13.1712Z" fill="#D0DBE1"/>
<path d="M7.49918 13.1712C9.13584 13.1712 10.7055 12.521 11.8628 11.3637C13.0201 10.2065 13.6702 8.63682 13.6702 7.00015C13.6702 5.36349 13.0201 3.79386 11.8628 2.63656C10.7055 1.47926 9.13584 0.829102 7.49918 0.829102C5.86251 0.829102 4.29288 1.47926 3.13558 2.63656C1.97829 3.79386 1.32812 5.36349 1.32812 7.00015C1.32812 8.63682 1.97829 10.2065 3.13558 11.3637C4.29288 12.521 5.86251 13.1712 7.49918 13.1712Z" stroke="#191919" stroke-width="0.685714" stroke-linecap="round" stroke-linejoin="round"/>
<path d="M7.49951 3.91211V10.0832" stroke="#191919" stroke-width="0.685714" stroke-linecap="round" stroke-linejoin="round"/>
<path d="M10.5861 7H4.41504" stroke="#191919" stroke-width="0.685714" stroke-linecap="round" stroke-linejoin="round"/>
</g>
<defs>
<clipPath id="clip0_1031_38932">
<rect width="13.7143" height="13.7143" fill="white" transform="translate(0.642578 0.142578)"/>
</clipPath>
</defs>
</svg>
