<svg width="16" height="16" viewBox="0 0 16 16" fill="none" xmlns="http://www.w3.org/2000/svg">
<g id="Vector">
<path d="M7.99984 8.6665C7.63184 8.6665 7.33317 8.36784 7.33317 7.99984V5.33317C7.33317 4.96517 7.63184 4.6665 7.99984 4.6665C8.36784 4.6665 8.6665 4.96517 8.6665 5.33317V7.99984C8.6665 8.36784 8.36784 8.6665 7.99984 8.6665Z" fill="#B71D18"/>
<path d="M7.33651 10.6665C7.33651 11.0352 7.63851 11.3332 8.00651 11.3332C8.37451 11.3332 8.67317 11.0352 8.67317 10.6665C8.67317 10.2978 8.37451 9.99984 8.00651 9.99984H7.99984C7.63184 9.99984 7.33651 10.2978 7.33651 10.6665Z" fill="#B71D18"/>
<path fill-rule="evenodd" clip-rule="evenodd" d="M7.99984 15.3332C3.9565 15.3332 0.666504 12.0432 0.666504 7.99984C0.666504 3.9565 3.9565 0.666504 7.99984 0.666504C12.0432 0.666504 15.3332 3.9565 15.3332 7.99984C15.3332 12.0432 12.0432 15.3332 7.99984 15.3332ZM7.99984 1.99984C4.69184 1.99984 1.99984 4.69184 1.99984 7.99984C1.99984 11.3085 4.69184 13.9998 7.99984 13.9998C11.3085 13.9998 13.9998 11.3085 13.9998 7.99984C13.9998 4.69184 11.3085 1.99984 7.99984 1.99984Z" fill="#B71D18"/>
</g>
</svg>
