<svg width="16" height="16" viewBox="0 0 16 16" fill="none" xmlns="http://www.w3.org/2000/svg">
<g id="alert-circle" clip-path="url(#clip0_1248_87117)">
<path id="Vector" d="M7.99984 8.16602C7.90798 8.16602 7.83317 8.09121 7.83317 7.99935V5.33268C7.83317 5.24082 7.90798 5.16602 7.99984 5.16602C8.09169 5.16602 8.1665 5.24082 8.1665 5.33268V7.99935C8.1665 8.09121 8.09169 8.16602 7.99984 8.16602ZM8.00651 10.8327C7.91107 10.8327 7.83651 10.755 7.83651 10.666C7.83651 10.5705 7.91092 10.4993 7.99984 10.4993H8.00651C8.09869 10.4993 8.17317 10.5738 8.17317 10.666C8.17317 10.7582 8.09869 10.8327 8.00651 10.8327ZM7.99984 14.8327C4.23265 14.8327 1.1665 11.7665 1.1665 7.99935C1.1665 4.23216 4.23265 1.16602 7.99984 1.16602C11.767 1.16602 14.8332 4.23216 14.8332 7.99935C14.8332 11.7665 11.767 14.8327 7.99984 14.8327ZM7.99984 1.49935C4.41569 1.49935 1.49984 4.41521 1.49984 7.99935C1.49984 11.5842 4.41573 14.4993 7.99984 14.4993C11.5846 14.4993 14.4998 11.5842 14.4998 7.99935C14.4998 4.41524 11.5847 1.49935 7.99984 1.49935Z" fill="#B71D18" stroke="#B71D18"/>
</g>
<defs>
<clipPath id="clip0_1248_87117">
<rect width="16" height="16" fill="white" transform="translate(0 -0.000488281)"/>
</clipPath>
</defs>
</svg>
