<svg width="16" height="16" viewBox="0 0 16 16" fill="none" xmlns="http://www.w3.org/2000/svg">
<path d="M3.33321 6.66668C3.3329 6.51091 3.38715 6.35996 3.48654 6.24002C3.59957 6.10368 3.76221 6.01792 3.93856 6.00166C4.11491 5.9854 4.29049 6.03998 4.42654 6.15335L7.99987 9.14002L11.5799 6.26002C11.7176 6.14817 11.8942 6.09584 12.0707 6.11461C12.2471 6.13337 12.4088 6.2217 12.5199 6.36002C12.6426 6.49946 12.7015 6.68377 12.6825 6.86853C12.6636 7.0533 12.5684 7.22177 12.4199 7.33335L8.41987 10.5533C8.17387 10.7556 7.81921 10.7556 7.57321 10.5533L3.57321 7.22002C3.40958 7.08437 3.32043 6.87884 3.33321 6.66668Z" fill="#637381"/>
</svg>
