<svg width="17" height="16" viewBox="0 0 17 16" fill="none" xmlns="http://www.w3.org/2000/svg">
<g id="icons/ic_chevron_right">
<path id="shape" d="M7.16662 12.6668C7.01085 12.6671 6.8599 12.6128 6.73995 12.5135C6.60362 12.4004 6.51786 12.2378 6.5016 12.0614C6.48534 11.8851 6.53992 11.7095 6.65329 11.5735L9.63995 8.00013L6.75995 4.42013C6.64811 4.2824 6.59578 4.10577 6.61454 3.92934C6.63331 3.75291 6.72163 3.59124 6.85995 3.48013C6.9994 3.35743 7.18371 3.29848 7.36847 3.31746C7.55324 3.33644 7.7217 3.43164 7.83329 3.58013L11.0533 7.58013C11.2555 7.82613 11.2555 8.18079 11.0533 8.42679L7.71995 12.4268C7.58431 12.5904 7.37878 12.6796 7.16662 12.6668Z" fill="#637381"/>
</g>
</svg>
