<svg width="20" height="20" viewBox="0 0 20 20" fill="none" xmlns="http://www.w3.org/2000/svg">
<path d="M17.3627 10.9698C17.404 10.6604 17.4246 10.3407 17.4246 10.0004C17.4246 9.67038 17.404 9.34038 17.3524 9.031L19.4459 7.40162C19.5361 7.32727 19.5977 7.22393 19.6203 7.10923C19.6429 6.99452 19.6249 6.87554 19.5696 6.77256L17.5896 3.34879C17.5313 3.24522 17.4382 3.16562 17.3269 3.12409C17.2155 3.08257 17.0931 3.0818 16.9812 3.12192L14.5165 4.11192C14.0008 3.72005 13.4543 3.39004 12.8458 3.14254L12.4746 0.523159C12.4563 0.405111 12.3963 0.297528 12.3055 0.219946C12.2147 0.142363 12.099 0.0999277 11.9796 0.100345H8.01958C7.77208 0.100345 7.57614 0.275658 7.53489 0.523159L7.16364 3.14254C6.5552 3.39004 5.99832 3.73036 5.49301 4.11192L3.02831 3.12192C2.80143 3.03942 2.54362 3.12192 2.41987 3.34879L0.450176 6.77256C0.326426 6.98912 0.367676 7.25725 0.573927 7.40162L2.66737 9.031C2.61581 9.34038 2.57456 9.68069 2.57456 10.0004C2.57456 10.3201 2.59518 10.6604 2.64675 10.9698L0.553302 12.5991C0.463092 12.6735 0.401453 12.7768 0.378888 12.8915C0.356323 13.0062 0.374228 13.1252 0.429551 13.2282L2.40956 16.652C2.53331 16.8788 2.79112 16.951 3.018 16.8788L5.4827 15.8888C5.99832 16.2807 6.54489 16.6107 7.15333 16.8582L7.52458 19.4776C7.57614 19.7251 7.77208 19.9004 8.01958 19.9004H11.9796C12.2271 19.9004 12.4333 19.7251 12.4643 19.4776L12.8355 16.8582C13.444 16.6107 14.0009 16.2807 14.5062 15.8888L16.9709 16.8788C17.1977 16.9613 17.4556 16.8788 17.5793 16.652L19.5593 13.2282C19.6831 13.0013 19.6315 12.7435 19.4356 12.5991L17.3627 10.9698ZM9.99959 13.7129C7.9577 13.7129 6.28707 12.0423 6.28707 10.0004C6.28707 7.9585 7.9577 6.28787 9.99959 6.28787C12.0415 6.28787 13.7121 7.9585 13.7121 10.0004C13.7121 12.0423 12.0415 13.7129 9.99959 13.7129Z" fill="#637381"/>
</svg>
