<svg width="16" height="16" viewBox="0 0 16 16" fill="none" xmlns="http://www.w3.org/2000/svg">
<g id="hugeicons:change-screen-mode" clip-path="url(#clip0_3892_27221)">
<g id="Group">
<path id="Vector" d="M10.6667 1.33331H8C6.11467 1.33331 5.17133 1.33331 4.586 1.96398C4 2.59531 4 3.61065 4 5.64131V6.35865C4 8.38998 4 9.40531 4.586 10.036C5.17133 10.6666 6.11467 10.6666 8 10.6666H10.6667C12.552 10.6666 13.4953 10.6666 14.0807 10.036C14.6667 9.40465 14.6667 8.38931 14.6667 6.35865V5.64131C14.6667 3.61065 14.6667 2.59465 14.0807 1.96398C13.4953 1.33331 12.552 1.33331 10.6667 1.33331Z" stroke="#252F40" stroke-linecap="round" stroke-linejoin="round"/>
<path id="Vector_2" d="M11.9999 11.072C11.9919 12.636 11.9273 13.4826 11.4153 14.0346C10.8293 14.6666 9.88659 14.6666 8.00059 14.6666H5.33392C3.44725 14.6666 2.50525 14.6666 1.91925 14.0346C1.33325 13.404 1.33325 12.3866 1.33325 10.3533V9.63465C1.33325 7.60131 1.33325 6.58398 1.91925 5.95265C2.34659 5.49131 2.96459 5.36665 3.99992 5.33331" stroke="#252F40" stroke-linecap="round" stroke-linejoin="round"/>
</g>
</g>
<defs>
<clipPath id="clip0_3892_27221">
<rect width="16" height="16" fill="white"/>
</clipPath>
</defs>
</svg>
