<svg width="11" height="10" viewBox="0 0 11 10" fill="none" xmlns="http://www.w3.org/2000/svg">
<path d="M2.70544 7.79436C2.78669 7.87561 2.89336 7.91644 3.00002 7.91644C3.10669 7.91644 3.21336 7.87561 3.29461 7.79436L5.50002 5.58895L7.70544 7.79436C7.78669 7.87561 7.89336 7.91644 8.00002 7.91644C8.10669 7.91644 8.21336 7.87561 8.29461 7.79436C8.45752 7.63144 8.45752 7.36811 8.29461 7.20519L6.08919 4.99978L8.29461 2.79436C8.45752 2.63145 8.45752 2.36811 8.29461 2.2052C8.13169 2.04228 7.86836 2.04228 7.70544 2.2052L5.50002 4.41061L3.29461 2.2052C3.13169 2.04228 2.86836 2.04228 2.70544 2.2052C2.54252 2.36811 2.54252 2.63145 2.70544 2.79436L4.91086 4.99978L2.70544 7.20519C2.54252 7.36811 2.54252 7.63144 2.70544 7.79436Z" fill="#2F3236"/>
</svg>
