<svg width="17" height="18" viewBox="0 0 17 18" fill="none" xmlns="http://www.w3.org/2000/svg">
<g id="icons/ic_view_week">
<path id="shape" fill-rule="evenodd" clip-rule="evenodd" d="M14.75 5.45929L14.75 3.46852C14.75 3.10355 14.3341 2.80493 13.8257 2.80493L2.73429 2.80493C2.22593 2.80493 1.81 3.10355 1.81 3.46852L1.81 5.45929C1.81 5.82427 2.22593 6.12288 2.73429 6.12288L13.8257 6.12288C14.3341 6.12288 14.75 5.82427 14.75 5.45929ZM14.75 14.7496L14.75 12.7588C14.75 12.3938 14.3341 12.0952 13.8257 12.0952L2.73428 12.0952C2.22593 12.0952 1.81 12.3938 1.81 12.7588L1.81 14.7496C1.81 15.1145 2.22593 15.4132 2.73428 15.4132L13.8257 15.4132C14.3341 15.4132 14.75 15.1145 14.75 14.7496ZM14.75 8.11366L14.75 10.1044C14.75 10.4694 14.3341 10.768 13.8257 10.768L2.73429 10.768C2.22593 10.768 1.81 10.4694 1.81 10.1044L1.81 8.11366C1.81 7.74868 2.22593 7.45007 2.73429 7.45007L13.8257 7.45007C14.3341 7.45007 14.75 7.74868 14.75 8.11366Z" fill="#637381"/>
</g>
</svg>
