<svg width="17" height="18" viewBox="0 0 17 18" fill="none" xmlns="http://www.w3.org/2000/svg">
<g clip-path="url(#clip0_802_28070)">
<path d="M14.0138 9.75304C14.0458 9.51273 14.0619 9.2644 14.0619 9.00006C14.0619 8.74373 14.0458 8.48739 14.0058 8.24708L15.6319 6.98143C15.702 6.92368 15.7499 6.84341 15.7674 6.75431C15.7849 6.66521 15.771 6.57279 15.728 6.4928L14.19 3.83334C14.1447 3.75289 14.0725 3.69106 13.9859 3.6588C13.8994 3.62655 13.8043 3.62595 13.7174 3.65711L11.8029 4.42611C11.4024 4.12172 10.9779 3.86538 10.5052 3.67313L10.2169 1.63849C10.2027 1.54679 10.1561 1.46323 10.0855 1.40296C10.015 1.3427 9.92515 1.30974 9.83237 1.31006H6.75637C6.56412 1.31006 6.41192 1.44624 6.37988 1.63849L6.0915 3.67313C5.61889 3.86538 5.18632 4.12973 4.79381 4.42611L2.87932 3.65711C2.7031 3.59303 2.50284 3.65711 2.40671 3.83334L0.876721 6.4928C0.780596 6.66102 0.812637 6.86929 0.972846 6.98143L2.59896 8.24708C2.55891 8.48739 2.52687 8.75174 2.52687 9.00006C2.52687 9.24838 2.54289 9.51273 2.58294 9.75304L0.956825 11.0187C0.886753 11.0764 0.838875 11.1567 0.821347 11.2458C0.803819 11.3349 0.817727 11.4273 0.8607 11.5073L2.3987 14.1668C2.49482 14.343 2.69509 14.3991 2.87131 14.343L4.7858 13.574C5.18632 13.8784 5.61088 14.1347 6.08349 14.327L6.37187 16.3616C6.41192 16.5539 6.56412 16.6901 6.75637 16.6901H9.83237C10.0246 16.6901 10.1848 16.5539 10.2089 16.3616L10.4972 14.327C10.9698 14.1347 11.4024 13.8784 11.7949 13.574L13.7094 14.343C13.8856 14.4071 14.0859 14.343 14.182 14.1668L15.72 11.5073C15.8161 11.3311 15.7761 11.1308 15.6239 11.0187L14.0138 9.75304ZM8.29437 11.8838C6.7083 11.8838 5.41062 10.5861 5.41062 9.00006C5.41062 7.414 6.7083 6.11631 8.29437 6.11631C9.88043 6.11631 11.1781 7.414 11.1781 9.00006C11.1781 10.5861 9.88043 11.8838 8.29437 11.8838Z" fill="#637381"/>
</g>
<defs>
<clipPath id="clip0_802_28070">
<rect width="16.56" height="16.56" fill="white" transform="translate(0.0144043 0.720215)"/>
</clipPath>
</defs>
</svg>
