<svg width="19" height="18" viewBox="0 0 19 18" fill="none" xmlns="http://www.w3.org/2000/svg">
<g id="streamline:mail-send-reply-all">
<path id="Vector" d="M8.56526 6.8948C8.69983 6.8948 8.8344 6.8948 8.97606 6.8948C10.0739 6.8948 11.1717 6.88771 12.2695 6.90188C14.4014 6.93729 16.3704 8.6513 16.6253 10.7761C16.7387 11.7181 16.6962 12.6813 16.6962 13.6375C16.6962 13.9704 16.4341 14.1616 16.1012 14.1545C15.7683 14.1475 15.5559 13.9491 15.5488 13.595C15.5346 12.9576 15.5488 12.3201 15.5417 11.6827C15.5417 9.59329 14.0118 8.06344 11.9295 8.06344C10.938 8.06344 9.94638 8.06344 8.95481 8.06344C8.82732 8.06344 8.69983 8.06344 8.47319 8.06344C8.60776 8.23342 8.6715 8.33258 8.74941 8.41757C9.29478 8.97002 9.85431 9.51538 10.3997 10.0749C10.6051 10.2803 10.6971 10.5282 10.5413 10.8115C10.3997 11.0594 10.1801 11.1586 9.91805 11.1019C9.79056 11.0736 9.65599 10.9886 9.55683 10.8965C8.56526 9.9191 7.58077 8.93461 6.60336 7.94303C6.2988 7.63848 6.30589 7.32684 6.61752 7.0152C7.59493 6.02363 8.58651 5.03913 9.571 4.06173C9.84014 3.79258 10.1872 3.77842 10.4209 4.00506C10.6901 4.26004 10.6971 4.57876 10.4068 4.88332C9.87555 5.43576 9.32311 5.97405 8.78482 6.51233C8.69275 6.60441 8.61484 6.69648 8.52985 6.78856C8.53693 6.82397 8.55109 6.85938 8.56526 6.8948ZM4.0536 7.15685C4.81144 6.39901 5.57637 5.64116 6.32714 4.87623C6.59628 4.60001 6.58919 4.23171 6.33422 3.99798C6.10049 3.77842 5.75344 3.79258 5.4843 4.05464C4.49981 5.03205 3.51531 6.01654 2.53082 7.00812C2.2121 7.33392 2.21918 7.63139 2.54499 7.9572C3.50115 8.92044 4.46439 9.8766 5.42055 10.8398C5.74636 11.1656 6.09341 11.2011 6.34838 10.9532C6.61044 10.6911 6.57503 10.3299 6.23506 9.98992C5.51263 9.25333 4.77603 8.52381 4.03943 7.78721C3.94736 7.69514 3.86236 7.60306 3.75612 7.48266C3.86945 7.36225 3.95444 7.25601 4.0536 7.15685Z" fill="#637381"/>
</g>
</svg>
