<svg width="48" height="47" viewBox="0 0 48 47" fill="none" xmlns="http://www.w3.org/2000/svg">
<g filter="url(#filter0_d_748_31788)">
<circle cx="24" cy="22.5" r="15.9844" fill="white" stroke="url(#paint0_linear_748_31788)" stroke-width="1.03125"/>
<path d="M21.0257 18.811L15.9749 19.5433L15.8854 19.5615C15.75 19.5975 15.6265 19.6687 15.5277 19.768C15.4288 19.8673 15.358 19.991 15.3226 20.1265C15.2872 20.2621 15.2884 20.4046 15.326 20.5396C15.3637 20.6746 15.4366 20.7971 15.5371 20.8947L19.1962 24.4564L18.3332 29.4874L18.323 29.5745C18.3147 29.7146 18.3438 29.8543 18.4072 29.9795C18.4707 30.1046 18.5663 30.2106 18.6842 30.2866C18.8021 30.3627 18.9382 30.406 19.0783 30.4122C19.2185 30.4184 19.3578 30.3872 19.482 30.3218L23.9992 27.9468L28.5062 30.3218L28.5853 30.3583C28.716 30.4097 28.858 30.4255 28.9968 30.404C29.1356 30.3825 29.2661 30.3244 29.3751 30.2358C29.484 30.1471 29.5674 30.0311 29.6167 29.8996C29.666 29.7681 29.6795 29.6258 29.6557 29.4874L28.792 24.4564L32.4526 20.8939L32.5144 20.8266C32.6026 20.718 32.6604 20.5879 32.682 20.4496C32.7036 20.3113 32.6881 20.1698 32.6372 20.0395C32.5862 19.9091 32.5016 19.7946 32.392 19.7076C32.2825 19.6206 32.1517 19.5642 32.0132 19.5441L26.9624 18.811L24.7046 14.2352C24.6392 14.1026 24.5381 13.991 24.4126 13.9129C24.2871 13.8348 24.1423 13.7935 23.9945 13.7935C23.8467 13.7935 23.7018 13.8348 23.5763 13.9129C23.4508 13.991 23.3497 14.1026 23.2843 14.2352L21.0257 18.811Z" fill="url(#paint1_linear_748_31788)"/>
</g>
<defs>
<filter id="filter0_d_748_31788" x="0.951562" y="0.658125" width="46.0969" height="46.0969" filterUnits="userSpaceOnUse" color-interpolation-filters="sRGB">
<feFlood flood-opacity="0" result="BackgroundImageFix"/>
<feColorMatrix in="SourceAlpha" type="matrix" values="0 0 0 0 0 0 0 0 0 0 0 0 0 0 0 0 0 0 127 0" result="hardAlpha"/>
<feOffset dy="1.20656"/>
<feGaussianBlur stdDeviation="3.27422"/>
<feComposite in2="hardAlpha" operator="out"/>
<feColorMatrix type="matrix" values="0 0 0 0 0.25098 0 0 0 0 0.509961 0 0 0 0 0.74902 0 0 0 0.5 0"/>
<feBlend mode="normal" in2="BackgroundImageFix" result="effect1_dropShadow_748_31788"/>
<feBlend mode="normal" in="SourceGraphic" in2="effect1_dropShadow_748_31788" result="shape"/>
</filter>
<linearGradient id="paint0_linear_748_31788" x1="24" y1="6" x2="24" y2="39" gradientUnits="userSpaceOnUse">
<stop stop-color="#2C6A8F"/>
<stop offset="1" stop-color="#408DBF"/>
</linearGradient>
<linearGradient id="paint1_linear_748_31788" x1="23.9942" y1="13.7935" x2="23.9942" y2="30.4133" gradientUnits="userSpaceOnUse">
<stop stop-color="#2C6A8F"/>
<stop offset="1" stop-color="#408DBF"/>
</linearGradient>
</defs>
</svg>
