<svg width="18" height="18" viewBox="0 0 18 18" fill="none" xmlns="http://www.w3.org/2000/svg">
<path d="M15.7844 13.5577C15.7844 13.6949 15.7299 13.8266 15.6328 13.9236C15.5358 14.0207 15.4041 14.0752 15.2669 14.0752H11.7479C11.6326 14.505 11.3788 14.8847 11.0257 15.1556C10.6727 15.4264 10.2401 15.5732 9.79517 15.5732C9.3502 15.5732 8.91766 15.4264 8.56461 15.1556C8.21157 14.8847 7.95773 14.505 7.84247 14.0752H2.50187C2.36463 14.0752 2.233 14.0207 2.13595 13.9236C2.0389 13.8266 1.98438 13.6949 1.98438 13.5577C1.98438 13.4204 2.0389 13.2888 2.13595 13.1917C2.233 13.0947 2.36463 13.0402 2.50187 13.0402H7.84247C7.95773 12.6104 8.21157 12.2306 8.56461 11.9598C8.91766 11.6889 9.3502 11.5421 9.79517 11.5421C10.2401 11.5421 10.6727 11.6889 11.0257 11.9598C11.3788 12.2306 11.6326 12.6104 11.7479 13.0402H15.2669C15.4041 13.0402 15.5358 13.0947 15.6328 13.1917C15.7299 13.2888 15.7844 13.4204 15.7844 13.5577ZM15.7844 4.44277C15.7844 4.58002 15.7299 4.71165 15.6328 4.8087C15.5358 4.90575 15.4041 4.96027 15.2669 4.96027H13.5764C13.4611 5.39006 13.2073 5.76981 12.8542 6.04065C12.5012 6.3115 12.0686 6.4583 11.6237 6.4583C11.1787 6.4583 10.7462 6.3115 10.3931 6.04065C10.0401 5.76981 9.78623 5.39006 9.67098 4.96027H2.50187C2.43392 4.96027 2.36662 4.94689 2.30384 4.92088C2.24105 4.89487 2.184 4.85676 2.13595 4.8087C2.08789 4.76065 2.04977 4.7036 2.02377 4.64081C1.99776 4.57803 1.98437 4.51073 1.98438 4.44277C1.98437 4.37481 1.99776 4.30752 2.02377 4.24473C2.04977 4.18195 2.08789 4.1249 2.13595 4.07685C2.184 4.02879 2.24105 3.99067 2.30384 3.96467C2.36662 3.93866 2.43392 3.92527 2.50187 3.92527H9.67098C9.78623 3.49549 10.0401 3.11574 10.3931 2.84489C10.7462 2.57405 11.1787 2.42725 11.6237 2.42725C12.0686 2.42725 12.5012 2.57405 12.8542 2.84489C13.2073 3.11574 13.4611 3.49549 13.5764 3.92527H15.2669C15.3351 3.92434 15.4028 3.9371 15.466 3.96277C15.5292 3.98845 15.5866 4.02654 15.6349 4.07478C15.6831 4.12302 15.7212 4.18044 15.7469 4.24364C15.7726 4.30685 15.7853 4.37456 15.7844 4.44277ZM15.7844 8.99677C15.7853 9.06499 15.7726 9.1327 15.7469 9.1959C15.7212 9.25911 15.6831 9.31653 15.6349 9.36477C15.5866 9.41301 15.5292 9.45109 15.466 9.47677C15.4028 9.50245 15.3351 9.5152 15.2669 9.51427H7.19388C7.07862 9.94406 6.82478 10.3238 6.47174 10.5947C6.11869 10.8655 5.68615 11.0123 5.24117 11.0123C4.7962 11.0123 4.36366 10.8655 4.01061 10.5947C3.65757 10.3238 3.40373 9.94406 3.28848 9.51427H2.50187C2.36463 9.51427 2.233 9.45975 2.13595 9.3627C2.0389 9.26565 1.98438 9.13402 1.98438 8.99677C1.98438 8.85952 2.0389 8.7279 2.13595 8.63085C2.233 8.5338 2.36463 8.47927 2.50187 8.47927H3.28848C3.40373 8.04949 3.65757 7.66973 4.01061 7.39889C4.36366 7.12805 4.7962 6.98125 5.24117 6.98125C5.68615 6.98125 6.11869 7.12805 6.47174 7.39889C6.82478 7.66973 7.07862 8.04949 7.19388 8.47927H15.2669C15.4041 8.47927 15.5358 8.5338 15.6328 8.63085C15.7299 8.7279 15.7844 8.85952 15.7844 8.99677Z" fill="#637381"/>
</svg>
