<svg width="17" height="16" viewBox="0 0 17 16" fill="none" xmlns="http://www.w3.org/2000/svg">
<path d="M4.49996 6.66663C3.76663 6.66663 3.16663 7.26663 3.16663 7.99996C3.16663 8.73329 3.76663 9.33329 4.49996 9.33329C5.23329 9.33329 5.83329 8.73329 5.83329 7.99996C5.83329 7.26663 5.23329 6.66663 4.49996 6.66663ZM12.5 6.66663C11.7666 6.66663 11.1666 7.26663 11.1666 7.99996C11.1666 8.73329 11.7666 9.33329 12.5 9.33329C13.2333 9.33329 13.8333 8.73329 13.8333 7.99996C13.8333 7.26663 13.2333 6.66663 12.5 6.66663ZM8.49996 6.66663C7.76663 6.66663 7.16663 7.26663 7.16663 7.99996C7.16663 8.73329 7.76663 9.33329 8.49996 9.33329C9.23329 9.33329 9.83329 8.73329 9.83329 7.99996C9.83329 7.26663 9.23329 6.66663 8.49996 6.66663Z" fill="#1A1A1A"/>
</svg>
