<svg width="17" height="17" viewBox="0 0 17 17" fill="none" xmlns="http://www.w3.org/2000/svg">
<g id="mdi:eye">
<path id="Vector" d="M8.28 6.47902C7.731 6.47902 7.20449 6.69711 6.81629 7.08531C6.42809 7.47351 6.21 8.00003 6.21 8.54902C6.21 9.09802 6.42809 9.62453 6.81629 10.0127C7.20449 10.4009 7.731 10.619 8.28 10.619C8.829 10.619 9.35551 10.4009 9.74371 10.0127C10.1319 9.62453 10.35 9.09802 10.35 8.54902C10.35 8.00003 10.1319 7.47351 9.74371 7.08531C9.35551 6.69711 8.829 6.47902 8.28 6.47902ZM8.28 11.999C7.36501 11.999 6.48748 11.6355 5.84048 10.9885C5.19348 10.3415 4.83 9.46402 4.83 8.54902C4.83 7.63403 5.19348 6.75651 5.84048 6.1095C6.48748 5.4625 7.36501 5.09902 8.28 5.09902C9.195 5.09902 10.0725 5.4625 10.7195 6.1095C11.3665 6.75651 11.73 7.63403 11.73 8.54902C11.73 9.46402 11.3665 10.3415 10.7195 10.9885C10.0725 11.6355 9.195 11.999 8.28 11.999ZM8.28 3.37402C4.83 3.37402 1.8837 5.51992 0.690002 8.54902C1.8837 11.5781 4.83 13.724 8.28 13.724C11.73 13.724 14.6763 11.5781 15.87 8.54902C14.6763 5.51992 11.73 3.37402 8.28 3.37402Z" fill="#637381"/>
</g>
</svg>
