<svg width="20" height="20" viewBox="0 0 20 20" fill="none" xmlns="http://www.w3.org/2000/svg">
<path fill-rule="evenodd" clip-rule="evenodd" d="M15.185 10.9125L16.5689 12.3042C16.9243 12.6655 17.0289 13.2045 16.8343 13.6725C16.6397 14.1405 16.1838 14.4465 15.677 14.4494H13.0936V14.7108C13.0189 16.3359 11.6435 17.5943 10.0181 17.5248C8.39276 17.5943 7.01743 16.3359 6.94266 14.7108V14.4494H4.35925C3.85244 14.4465 3.39658 14.1405 3.20201 13.6725C3.00743 13.2045 3.11196 12.6655 3.46736 12.3042L4.85133 10.9125V7.32192C4.85405 5.8312 5.4986 4.41386 6.62029 3.43201C7.74198 2.45016 9.23217 1.99891 10.7101 2.19355C13.3131 2.5925 15.223 4.85026 15.185 7.48338V10.9125ZM10.0181 15.9871C10.7896 16.0415 11.4673 15.4791 11.5559 14.7108V14.4494H8.4804V14.7108C8.56899 15.4791 9.24665 16.0415 10.0181 15.9871Z" fill="white"/>
</svg>
