<svg width="17" height="16" viewBox="0 0 17 16" fill="none" xmlns="http://www.w3.org/2000/svg">
<g clip-path="url(#clip0_689_39796)">
<path d="M13.9634 1.43748V4.24998H11.1509V1.43748H5.52588V4.24998H2.71338V1.43748H0.838379V15.5H15.8384V1.43748H13.9634ZM3.65088 14.5625H1.77588V12.6875H3.65088V14.5625ZM3.65088 11.75H1.77588V9.87498H3.65088V11.75ZM3.65088 8.93748H1.77588V7.06248H3.65088V8.93748ZM6.46338 14.5625H4.58838V12.6875H6.46338V14.5625ZM6.46338 11.75H4.58838V9.87498H6.46338V11.75ZM6.46338 8.93748H4.58838V7.06248H6.46338V8.93748ZM9.27588 14.5625H7.40088V12.6875H9.27588V14.5625ZM9.27588 11.75H7.40088V9.87498H9.27588V11.75ZM9.27588 8.93748H7.40088V7.06248H9.27588V8.93748ZM12.0884 14.5625H10.2134V12.6875H12.0884V14.5625ZM12.0884 11.75H10.2134V9.87498H12.0884V11.75ZM12.0884 8.93748H10.2134V7.06248H12.0884V8.93748ZM14.9009 14.5625H13.0259V12.6875H14.9009V14.5625ZM14.9009 11.75H13.0259V9.87498H14.9009V11.75ZM14.9009 8.93748H13.0259V7.06248H14.9009V8.93748Z" fill="white"/>
<path d="M3.651 0.5H4.5885V3.3125H3.651V0.5ZM12.0885 0.5H13.026V3.3125H12.0885V0.5Z" fill="white"/>
</g>
<defs>
<clipPath id="clip0_689_39796">
<rect width="15.38" height="15.38" fill="white" transform="translate(0.648438 0.309998)"/>
</clipPath>
</defs>
</svg>
