<svg width="20" height="20" viewBox="0 0 20 20" fill="none" xmlns="http://www.w3.org/2000/svg">
<path d="M17.2176 6.00002H12.4176C12.2054 6.00002 12.0019 6.0843 11.8519 6.23433C11.7019 6.38436 11.6176 6.58785 11.6176 6.80002V9.20002H10.0176V3.60002C10.0176 3.38785 9.93329 3.18436 9.78326 3.03433C9.63323 2.8843 9.42975 2.80002 9.21758 2.80002H2.81758C2.6054 2.80002 2.40192 2.8843 2.25189 3.03433C2.10186 3.18436 2.01758 3.38785 2.01758 3.60002V16.4C2.01758 16.6122 2.10186 16.8157 2.25189 16.9657C2.40192 17.1157 2.6054 17.2 2.81758 17.2H17.2176C17.4298 17.2 17.6332 17.1157 17.7833 16.9657C17.9333 16.8157 18.0176 16.6122 18.0176 16.4V6.80002C18.0176 6.58785 17.9333 6.38436 17.7833 6.23433C17.6332 6.0843 17.4298 6.00002 17.2176 6.00002ZM6.81758 5.20002H8.41758V6.80002H6.81758V5.20002ZM5.21758 13.2H3.61758V11.6H5.21758V13.2ZM5.21758 10H3.61758V8.40002H5.21758V10ZM5.21758 6.80002H3.61758V5.20002H5.21758V6.80002ZM8.41758 13.2H6.81758V11.6H8.41758V13.2ZM8.41758 10H6.81758V8.40002H8.41758V10ZM15.6176 13.2H14.0176V11.6H15.6176V13.2ZM15.6176 10H14.0176V8.40002H15.6176V10Z" fill="white"/>
</svg>
