<svg width="16" height="16" viewBox="0 0 16 16" fill="none" xmlns="http://www.w3.org/2000/svg">
<g clip-path="url(#clip0_689_39806)">
<path d="M13.8489 15.0492L11.8783 13.0946C11.6861 13.2121 11.4806 13.3003 11.2618 13.3593C11.0431 13.4182 10.816 13.4475 10.5806 13.4471C9.87572 13.4471 9.27227 13.1961 8.77029 12.6941C8.2683 12.1921 8.01731 11.5887 8.01731 10.8837C8.01731 10.1788 8.2683 9.57537 8.77029 9.07339C9.27227 8.5714 9.87572 8.32041 10.5806 8.32041C11.2856 8.32041 11.889 8.5714 12.391 9.07339C12.893 9.57537 13.144 10.1788 13.144 10.8837C13.144 11.1294 13.1119 11.3618 13.0478 11.581C12.9838 11.8001 12.893 12.0056 12.7755 12.1974L14.7461 14.152L13.8489 15.0492ZM3.53147 13.4471C2.82656 13.4471 2.2231 13.1961 1.72112 12.6941C1.21913 12.1921 0.96814 11.5887 0.96814 10.8837C0.96814 10.1788 1.21913 9.57537 1.72112 9.07339C2.2231 8.5714 2.82656 8.32041 3.53147 8.32041C4.23639 8.32041 4.83984 8.5714 5.34183 9.07339C5.84381 9.57537 6.09481 10.1788 6.09481 10.8837C6.09481 11.5887 5.84381 12.1921 5.34183 12.6941C4.83984 13.1961 4.23639 13.4471 3.53147 13.4471ZM10.5806 12.1654C10.9331 12.1654 11.2349 12.04 11.4861 11.7892C11.7373 11.5385 11.8627 11.2366 11.8623 10.8837C11.8619 10.5309 11.7365 10.2292 11.4861 9.97888C11.2358 9.72853 10.934 9.60293 10.5806 9.60207C10.2273 9.60122 9.92571 9.72682 9.67578 9.97888C9.42586 10.2309 9.30025 10.5326 9.29897 10.8837C9.29769 11.2349 9.4233 11.5367 9.67578 11.7892C9.92827 12.0417 10.2299 12.1671 10.5806 12.1654ZM3.53147 6.39791C2.82656 6.39791 2.2231 6.14691 1.72112 5.64493C1.21913 5.14294 0.96814 4.53949 0.96814 3.83457C0.96814 3.12966 1.21913 2.52621 1.72112 2.02422C2.2231 1.52223 2.82656 1.27124 3.53147 1.27124C4.23639 1.27124 4.83984 1.52223 5.34183 2.02422C5.84381 2.52621 6.09481 3.12966 6.09481 3.83457C6.09481 4.53949 5.84381 5.14294 5.34183 5.64493C4.83984 6.14691 4.23639 6.39791 3.53147 6.39791ZM10.5806 6.39791C9.87572 6.39791 9.27227 6.14691 8.77029 5.64493C8.2683 5.14294 8.01731 4.53949 8.01731 3.83457C8.01731 3.12966 8.2683 2.52621 8.77029 2.02422C9.27227 1.52223 9.87572 1.27124 10.5806 1.27124C11.2856 1.27124 11.889 1.52223 12.391 2.02422C12.893 2.52621 13.144 3.12966 13.144 3.83457C13.144 4.53949 12.893 5.14294 12.391 5.64493C11.889 6.14691 11.2856 6.39791 10.5806 6.39791Z" fill="white"/>
</g>
<defs>
<clipPath id="clip0_689_39806">
<rect width="15.38" height="15.38" fill="white" transform="translate(0.00683594 0.309998)"/>
</clipPath>
</defs>
</svg>
