<svg width="19" height="18" viewBox="0 0 19 18" fill="none" xmlns="http://www.w3.org/2000/svg">
<path d="M8.96975 2.81165C9.1104 2.69214 9.30113 2.625 9.5 2.625C9.69887 2.625 9.8896 2.69214 10.0302 2.81165L13.0303 5.36168C13.1669 5.48192 13.2425 5.64295 13.2408 5.8101C13.239 5.97726 13.1602 6.13715 13.0211 6.25535C12.8821 6.37355 12.6939 6.44059 12.4973 6.44205C12.3007 6.4435 12.1112 6.37924 11.9698 6.26311L10.25 4.80131V11.55C10.25 11.719 10.171 11.8812 10.0303 12.0007C9.88968 12.1203 9.69891 12.1875 9.5 12.1875C9.30109 12.1875 9.11032 12.1203 8.96967 12.0007C8.82902 11.8812 8.75 11.719 8.75 11.55V4.80131L7.03025 6.26311C6.8888 6.37924 6.69935 6.4435 6.5027 6.44205C6.30605 6.44059 6.11794 6.37355 5.97889 6.25535C5.83983 6.13715 5.76095 5.97726 5.75924 5.8101C5.75754 5.64295 5.83313 5.48192 5.96975 5.36168L8.96975 2.81165ZM4.25 12.1875C4.44891 12.1875 4.63968 12.2546 4.78033 12.3742C4.92098 12.4937 5 12.6559 5 12.825V14.1H14V12.825C14 12.6559 14.079 12.4937 14.2197 12.3742C14.3603 12.2546 14.5511 12.1875 14.75 12.1875C14.9489 12.1875 15.1397 12.2546 15.2803 12.3742C15.421 12.4937 15.5 12.6559 15.5 12.825V14.1C15.5 14.4381 15.342 14.7624 15.0607 15.0016C14.7794 15.2407 14.3978 15.375 14 15.375H5C4.60218 15.375 4.22064 15.2407 3.93934 15.0016C3.65804 14.7624 3.5 14.4381 3.5 14.1V12.825C3.5 12.6559 3.57902 12.4937 3.71967 12.3742C3.86032 12.2546 4.05109 12.1875 4.25 12.1875Z" fill="#637381"/>
</svg>
