<svg width="16" height="16" viewBox="0 0 16 16" fill="none" xmlns="http://www.w3.org/2000/svg">
<path d="M13.9372 8.27254H4.77054C4.60478 8.27254 4.44581 8.20669 4.3286 8.08948C4.21139 7.97227 4.14554 7.8133 4.14554 7.64754C4.14554 7.48178 4.21139 7.32281 4.3286 7.2056C4.44581 7.08839 4.60478 7.02254 4.77054 7.02254H13.9372C14.103 7.02254 14.2619 7.08839 14.3791 7.2056C14.4964 7.32281 14.5622 7.48178 14.5622 7.64754C14.5622 7.8133 14.4964 7.97227 14.3791 8.08948C14.2619 8.20669 14.103 8.27254 13.9372 8.27254ZM13.9372 4.52254H4.77054C4.60478 4.52254 4.44581 4.45669 4.3286 4.33948C4.21139 4.22227 4.14554 4.0633 4.14554 3.89754C4.14554 3.73178 4.21139 3.57281 4.3286 3.4556C4.44581 3.33839 4.60478 3.27254 4.77054 3.27254H13.9372C14.103 3.27254 14.2619 3.33839 14.3791 3.4556C14.4964 3.57281 14.5622 3.73178 14.5622 3.89754C14.5622 4.0633 14.4964 4.22227 14.3791 4.33948C14.2619 4.45669 14.103 4.52254 13.9372 4.52254ZM13.9372 12.0225H4.77054C4.60478 12.0225 4.44581 11.9567 4.3286 11.8395C4.21139 11.7223 4.14554 11.5633 4.14554 11.3975C4.14554 11.2318 4.21139 11.0728 4.3286 10.9556C4.44581 10.8384 4.60478 10.7725 4.77054 10.7725H13.9372C14.103 10.7725 14.2619 10.8384 14.3791 10.9556C14.4964 11.0728 14.5622 11.2318 14.5622 11.3975C14.5622 11.5633 14.4964 11.7223 14.3791 11.8395C14.2619 11.9567 14.103 12.0225 13.9372 12.0225ZM2.27054 4.73087C2.16219 4.7322 2.05463 4.71238 1.95387 4.67254C1.85449 4.62387 1.76202 4.56222 1.67887 4.4892C1.60164 4.41134 1.54053 4.31899 1.49906 4.21746C1.45759 4.11593 1.43657 4.00721 1.43721 3.89754C1.44028 3.6769 1.52659 3.46557 1.67887 3.30587C1.7566 3.22808 1.85048 3.16834 1.95387 3.13087C2.15676 3.04752 2.38432 3.04752 2.58721 3.13087C2.6895 3.17053 2.78295 3.23 2.86221 3.30587C3.01448 3.46557 3.1008 3.6769 3.10387 3.89754C3.10451 4.00721 3.08349 4.11593 3.04201 4.21746C3.00054 4.31899 2.93944 4.41134 2.86221 4.4892C2.77906 4.56222 2.68658 4.62387 2.58721 4.67254C2.48645 4.71238 2.37888 4.7322 2.27054 4.73087ZM2.27054 8.48087C2.16164 8.47955 2.05406 8.4569 1.95387 8.4142C1.85325 8.3713 1.76035 8.31219 1.67887 8.2392C1.60164 8.16134 1.54053 8.06899 1.49906 7.96746C1.45759 7.86593 1.43657 7.75721 1.43721 7.64754C1.44028 7.4269 1.52659 7.21557 1.67887 7.05587C1.76035 6.98289 1.85325 6.92377 1.95387 6.88087C2.10472 6.81093 2.27305 6.78771 2.43721 6.8142L2.58721 6.8642L2.73721 6.9392C2.78045 6.97052 2.82216 7.00389 2.86221 7.0392C3.01843 7.20308 3.10505 7.42113 3.10387 7.64754C3.10387 7.86855 3.01607 8.08051 2.85979 8.23679C2.70351 8.39307 2.49155 8.48087 2.27054 8.48087ZM2.27054 12.2309C2.16219 12.2322 2.05463 12.2124 1.95387 12.1725C1.85449 12.1239 1.76202 12.0622 1.67887 11.9892C1.60589 11.9077 1.54677 11.8148 1.50387 11.7142C1.45978 11.6145 1.43701 11.5066 1.43701 11.3975C1.43701 11.2885 1.45978 11.1806 1.50387 11.0809C1.54677 10.9802 1.60589 10.8873 1.67887 10.8059C1.79606 10.6902 1.94487 10.6119 2.10653 10.5808C2.26819 10.5496 2.43545 10.5671 2.58721 10.6309C2.6895 10.6705 2.78295 10.73 2.86221 10.8059C2.93519 10.8873 2.99431 10.9802 3.03721 11.0809C3.08129 11.1806 3.10407 11.2885 3.10407 11.3975C3.10407 11.5066 3.08129 11.6145 3.03721 11.7142C2.99431 11.8148 2.93519 11.9077 2.86221 11.9892C2.78434 12.0664 2.69199 12.1275 2.59046 12.169C2.48893 12.2105 2.38021 12.2315 2.27054 12.2309Z" fill="#637381"/>
</svg>
