<svg width="83" height="18" viewBox="0 0 83 18" fill="none" xmlns="http://www.w3.org/2000/svg">
<g id="Frame" clip-path="url(#clip0_689_39825)">
<g id="Vector" filter="url(#filter0_d_689_39825)">
<path d="M23.961 12.5117C23.961 13.7903 24.4557 15.2412 25.9733 15.2412C26.4014 15.2301 26.8127 15.0966 27.163 14.8465C27.5132 14.6019 27.7745 14.2572 27.9245 13.857L30.5984 14.2906C30.276 15.2412 29.6534 16.0583 28.8251 16.6254C27.9968 17.1924 27.0073 17.4814 26.0011 17.4425C22.8492 17.4425 20.9258 15.2134 20.9258 12.1393C20.9258 9.07069 22.5601 6.64697 25.8566 6.64697C29.1531 6.64697 30.6874 9.10405 30.6874 12.1559V12.5006H23.961V12.5117ZM27.919 10.7106C27.7745 9.68218 27.1074 8.66489 25.9956 8.66489C24.8782 8.66489 24.1833 9.65438 24.0444 10.7106H27.919Z" fill="#FEFEFE"/>
</g>
<g id="Vector_2" filter="url(#filter1_d_689_39825)">
<path d="M37.1747 9.37681C36.7744 8.95989 36.2297 8.70973 35.6515 8.67638C35.4125 8.67082 35.179 8.75976 35.0011 8.92097C34.8232 9.08218 34.7176 9.3101 34.7009 9.54914C34.7009 10.2885 35.7627 10.4997 36.7967 10.95C37.8307 11.4003 38.8924 12.1118 38.8924 13.8629C38.8924 16.1087 37.0802 17.4707 34.9344 17.4707C34.2507 17.4651 33.5725 17.315 32.9554 17.0204C32.3384 16.7313 31.788 16.3033 31.3489 15.7808L32.6386 14.0519C32.8998 14.3855 33.2278 14.6634 33.6003 14.8635C33.9727 15.0637 34.3841 15.186 34.8121 15.2193C34.9622 15.2304 35.1123 15.2082 35.2513 15.1582C35.3903 15.1081 35.5181 15.0303 35.6293 14.9247C35.7405 14.8246 35.8239 14.6968 35.885 14.5633C35.9462 14.4299 35.974 14.2798 35.974 14.1297C35.974 13.2459 34.9622 13.0346 33.9449 12.601C32.9332 12.1674 31.9103 11.5671 31.9103 9.93827C31.8881 9.50467 31.9548 9.07662 32.1105 8.67082C32.2661 8.26501 32.4996 7.89812 32.8053 7.59237C33.1111 7.28663 33.4724 7.04204 33.8782 6.88082C34.2785 6.71961 34.7121 6.64179 35.1457 6.65846C36.3242 6.63623 37.4804 7.00868 38.4255 7.70911L37.1747 9.37681Z" fill="#FEFEFE"/>
</g>
<g id="Vector_3" filter="url(#filter2_d_689_39825)">
<path d="M43.3118 7.90934H43.3562C43.6564 7.49242 44.0567 7.15888 44.5181 6.93652C44.985 6.71416 45.4965 6.61966 46.0079 6.65301C48.7429 6.65301 49.5323 8.57086 49.5323 10.9279V17.1206H49.1876C48.5094 17.1206 47.859 16.8538 47.3754 16.3757C46.8973 15.8976 46.6249 15.2472 46.6249 14.5746V11.7562C46.6249 10.5554 46.6861 8.96555 45.0517 8.96555C43.4174 8.96555 43.3062 10.889 43.3062 12.1064V17.115H40.4044V6.98099H42.3779C42.6225 6.98099 42.8615 7.08105 43.0338 7.25338C43.2173 7.42571 43.3118 7.66475 43.3118 7.90934Z" fill="#FEFEFE"/>
</g>
<g id="Vector_4" filter="url(#filter3_d_689_39825)">
<path d="M79.8345 7.16959V8.1035C79.4842 7.70881 79.0562 7.39195 78.5726 7.17515C78.0889 6.95835 77.5664 6.84717 77.0383 6.84717C74.1643 6.84717 72.4744 9.46545 72.4744 12.106C72.4744 14.7465 74.1476 17.4648 77.0828 17.4648C77.5998 17.4704 78.1112 17.3648 78.5837 17.148C79.0506 16.9312 79.4676 16.6199 79.8011 16.2252H79.8345V16.253C80.0735 16.5254 80.3681 16.7477 80.7017 16.8978C81.0352 17.0479 81.3965 17.1313 81.7579 17.1313H82.6418V7.16959H79.8345ZM75.365 12.1449C75.365 10.8052 76.2656 9.35983 77.7332 9.35983C79.2007 9.35983 80.1458 10.7996 80.1458 12.1449C80.1458 13.4846 79.2285 14.9466 77.7276 14.9466C76.2378 14.9466 75.365 13.4846 75.365 12.1449Z" fill="#FEFEFE"/>
</g>
<g id="Vector_5" filter="url(#filter4_d_689_39825)">
<path d="M61.6953 12.0617C61.6953 15.197 59.5329 17.4706 56.342 17.4706C53.1512 17.4706 50.9943 15.2248 50.9943 12.0617C50.9943 8.89866 53.1734 6.65283 56.342 6.65283C59.5106 6.65283 61.6953 8.90422 61.6953 12.0617ZM53.9405 12.0617C53.9405 13.4237 54.8522 14.8857 56.3531 14.8857C57.8541 14.8857 58.7657 13.4237 58.7657 12.0617C58.7657 10.6998 57.8541 9.21553 56.3531 9.21553C54.8522 9.20997 53.9405 10.6553 53.9405 12.0617Z" fill="#FEFEFE"/>
</g>
<g id="Vector_6" filter="url(#filter5_d_689_39825)">
<path d="M67.0488 12.6956L69.1445 6.98096H72.3187L67.6547 17.3207H66.1427L61.4731 6.98096H64.664L67.0488 12.6956Z" fill="#FEFEFE"/>
</g>
<g id="Vector_7" filter="url(#filter6_d_689_39825)">
<path d="M19.6805 8.00342H13.5378C12.7651 8.09792 12.0592 8.47037 11.5422 9.03739C11.0252 9.60997 10.7361 10.3438 10.7306 11.1053H14.5218C14.4217 11.7057 14.1771 12.2727 13.8102 12.7619C13.4433 13.2511 12.9597 13.6458 12.3983 13.9126L12.2982 13.9571C11.7312 14.2128 11.103 14.3295 10.4804 14.2906C9.8578 14.2517 9.24631 14.0683 8.71265 13.7459C9.53538 14.7576 10.5971 15.5581 11.7979 16.0917C12.5595 16.4253 13.4044 16.542 14.2327 16.4308C15.061 16.3197 15.8393 15.9806 16.4786 15.4525C17.8572 14.324 18.8578 12.8231 19.3637 11.1331V11.0664C19.586 10.2937 19.6972 9.49879 19.6972 8.69273C19.7083 8.46481 19.7083 8.23134 19.6805 8.00342Z" fill="#DEDEDE"/>
</g>
<g id="Vector_8" filter="url(#filter7_d_689_39825)">
<path d="M10.7474 1.91667C9.44655 2.62266 8.37923 3.63996 7.651 4.85737C8.1124 4.4071 8.69053 4.07356 9.33537 3.89567C9.97466 3.71778 10.6584 3.69555 11.3144 3.83452C11.9703 3.97349 12.5707 4.26812 13.0599 4.6906C13.5491 5.11309 13.916 5.64675 14.1161 6.24156L18.2909 4.62946C17.8017 3.80117 17.1624 3.06182 16.4008 2.43366C15.6393 1.80549 14.6831 1.41636 13.6658 1.32186C12.6485 1.22736 11.6257 1.4386 10.7474 1.91667Z" fill="#DEDEDE"/>
</g>
<g id="Vector_9" filter="url(#filter8_d_689_39825)">
<path d="M6.35014 8.88214C6.34458 7.08658 6.82265 5.31883 7.72877 3.74563C8.63488 2.17244 9.94681 0.843841 11.5367 -0.112305H11.053C9.81339 -0.112305 8.59041 0.121173 7.44526 0.571451C6.30011 1.02173 5.26058 1.68881 4.38782 2.52266C3.5095 3.3565 2.82018 4.35156 2.34211 5.44112C1.8696 6.53624 1.625 7.70363 1.625 8.8877C1.625 10.0718 1.8696 11.2391 2.34211 12.3343C2.81462 13.4238 3.5095 14.4189 4.38782 15.2527C5.26614 16.0866 6.30567 16.7537 7.44526 17.2039C8.59041 17.6542 9.81339 17.8877 11.053 17.8877H11.5478C9.95236 16.9315 8.64044 15.603 7.72877 14.0298C6.82265 12.451 6.35014 10.6832 6.35014 8.88214Z" fill="#FEFEFE"/>
</g>
</g>
<defs>
<filter id="filter0_d_689_39825" x="20.0258" y="6.64697" width="10.6616" height="10.7988" filterUnits="userSpaceOnUse" color-interpolation-filters="sRGB">
<feFlood flood-opacity="0" result="BackgroundImageFix"/>
<feColorMatrix in="SourceAlpha" type="matrix" values="0 0 0 0 0 0 0 0 0 0 0 0 0 0 0 0 0 0 127 0" result="hardAlpha"/>
<feOffset dx="-0.9"/>
<feComposite in2="hardAlpha" operator="out"/>
<feColorMatrix type="matrix" values="0 0 0 0 0.704167 0 0 0 0 0.704167 0 0 0 0 0.704167 0 0 0 0.25 0"/>
<feBlend mode="normal" in2="BackgroundImageFix" result="effect1_dropShadow_689_39825"/>
<feBlend mode="normal" in="SourceGraphic" in2="effect1_dropShadow_689_39825" result="shape"/>
</filter>
<filter id="filter1_d_689_39825" x="30.4489" y="6.65625" width="8.44358" height="10.8145" filterUnits="userSpaceOnUse" color-interpolation-filters="sRGB">
<feFlood flood-opacity="0" result="BackgroundImageFix"/>
<feColorMatrix in="SourceAlpha" type="matrix" values="0 0 0 0 0 0 0 0 0 0 0 0 0 0 0 0 0 0 127 0" result="hardAlpha"/>
<feOffset dx="-0.9"/>
<feComposite in2="hardAlpha" operator="out"/>
<feColorMatrix type="matrix" values="0 0 0 0 0.704167 0 0 0 0 0.704167 0 0 0 0 0.704167 0 0 0 0.25 0"/>
<feBlend mode="normal" in2="BackgroundImageFix" result="effect1_dropShadow_689_39825"/>
<feBlend mode="normal" in="SourceGraphic" in2="effect1_dropShadow_689_39825" result="shape"/>
</filter>
<filter id="filter2_d_689_39825" x="39.5044" y="6.64648" width="10.0278" height="10.4741" filterUnits="userSpaceOnUse" color-interpolation-filters="sRGB">
<feFlood flood-opacity="0" result="BackgroundImageFix"/>
<feColorMatrix in="SourceAlpha" type="matrix" values="0 0 0 0 0 0 0 0 0 0 0 0 0 0 0 0 0 0 127 0" result="hardAlpha"/>
<feOffset dx="-0.9"/>
<feComposite in2="hardAlpha" operator="out"/>
<feColorMatrix type="matrix" values="0 0 0 0 0.704167 0 0 0 0 0.704167 0 0 0 0 0.704167 0 0 0 0.25 0"/>
<feBlend mode="normal" in2="BackgroundImageFix" result="effect1_dropShadow_689_39825"/>
<feBlend mode="normal" in="SourceGraphic" in2="effect1_dropShadow_689_39825" result="shape"/>
</filter>
<filter id="filter3_d_689_39825" x="71.5744" y="6.84717" width="11.0674" height="10.6177" filterUnits="userSpaceOnUse" color-interpolation-filters="sRGB">
<feFlood flood-opacity="0" result="BackgroundImageFix"/>
<feColorMatrix in="SourceAlpha" type="matrix" values="0 0 0 0 0 0 0 0 0 0 0 0 0 0 0 0 0 0 127 0" result="hardAlpha"/>
<feOffset dx="-0.9"/>
<feComposite in2="hardAlpha" operator="out"/>
<feColorMatrix type="matrix" values="0 0 0 0 0.704167 0 0 0 0 0.704167 0 0 0 0 0.704167 0 0 0 0.25 0"/>
<feBlend mode="normal" in2="BackgroundImageFix" result="effect1_dropShadow_689_39825"/>
<feBlend mode="normal" in="SourceGraphic" in2="effect1_dropShadow_689_39825" result="shape"/>
</filter>
<filter id="filter4_d_689_39825" x="50.0943" y="6.65283" width="11.601" height="10.8179" filterUnits="userSpaceOnUse" color-interpolation-filters="sRGB">
<feFlood flood-opacity="0" result="BackgroundImageFix"/>
<feColorMatrix in="SourceAlpha" type="matrix" values="0 0 0 0 0 0 0 0 0 0 0 0 0 0 0 0 0 0 127 0" result="hardAlpha"/>
<feOffset dx="-0.9"/>
<feComposite in2="hardAlpha" operator="out"/>
<feColorMatrix type="matrix" values="0 0 0 0 0.704167 0 0 0 0 0.704167 0 0 0 0 0.704167 0 0 0 0.25 0"/>
<feBlend mode="normal" in2="BackgroundImageFix" result="effect1_dropShadow_689_39825"/>
<feBlend mode="normal" in="SourceGraphic" in2="effect1_dropShadow_689_39825" result="shape"/>
</filter>
<filter id="filter5_d_689_39825" x="60.5731" y="6.98096" width="11.7456" height="10.3398" filterUnits="userSpaceOnUse" color-interpolation-filters="sRGB">
<feFlood flood-opacity="0" result="BackgroundImageFix"/>
<feColorMatrix in="SourceAlpha" type="matrix" values="0 0 0 0 0 0 0 0 0 0 0 0 0 0 0 0 0 0 127 0" result="hardAlpha"/>
<feOffset dx="-0.9"/>
<feComposite in2="hardAlpha" operator="out"/>
<feColorMatrix type="matrix" values="0 0 0 0 0.704167 0 0 0 0 0.704167 0 0 0 0 0.704167 0 0 0 0.25 0"/>
<feBlend mode="normal" in2="BackgroundImageFix" result="effect1_dropShadow_689_39825"/>
<feBlend mode="normal" in="SourceGraphic" in2="effect1_dropShadow_689_39825" result="shape"/>
</filter>
<filter id="filter6_d_689_39825" x="7.81265" y="8.00342" width="11.8915" height="8.46826" filterUnits="userSpaceOnUse" color-interpolation-filters="sRGB">
<feFlood flood-opacity="0" result="BackgroundImageFix"/>
<feColorMatrix in="SourceAlpha" type="matrix" values="0 0 0 0 0 0 0 0 0 0 0 0 0 0 0 0 0 0 127 0" result="hardAlpha"/>
<feOffset dx="-0.9"/>
<feComposite in2="hardAlpha" operator="out"/>
<feColorMatrix type="matrix" values="0 0 0 0 0.516732 0 0 0 0 0.516732 0 0 0 0 0.516732 0 0 0 0.25 0"/>
<feBlend mode="normal" in2="BackgroundImageFix" result="effect1_dropShadow_689_39825"/>
<feBlend mode="normal" in="SourceGraphic" in2="effect1_dropShadow_689_39825" result="shape"/>
</filter>
<filter id="filter7_d_689_39825" x="6.751" y="1.2998" width="11.5399" height="4.94189" filterUnits="userSpaceOnUse" color-interpolation-filters="sRGB">
<feFlood flood-opacity="0" result="BackgroundImageFix"/>
<feColorMatrix in="SourceAlpha" type="matrix" values="0 0 0 0 0 0 0 0 0 0 0 0 0 0 0 0 0 0 127 0" result="hardAlpha"/>
<feOffset dx="-0.9"/>
<feComposite in2="hardAlpha" operator="out"/>
<feColorMatrix type="matrix" values="0 0 0 0 0.516732 0 0 0 0 0.516732 0 0 0 0 0.516732 0 0 0 0.25 0"/>
<feBlend mode="normal" in2="BackgroundImageFix" result="effect1_dropShadow_689_39825"/>
<feBlend mode="normal" in="SourceGraphic" in2="effect1_dropShadow_689_39825" result="shape"/>
</filter>
<filter id="filter8_d_689_39825" x="0.725" y="-0.112305" width="10.8229" height="18" filterUnits="userSpaceOnUse" color-interpolation-filters="sRGB">
<feFlood flood-opacity="0" result="BackgroundImageFix"/>
<feColorMatrix in="SourceAlpha" type="matrix" values="0 0 0 0 0 0 0 0 0 0 0 0 0 0 0 0 0 0 127 0" result="hardAlpha"/>
<feOffset dx="-0.9"/>
<feComposite in2="hardAlpha" operator="out"/>
<feColorMatrix type="matrix" values="0 0 0 0 0.516732 0 0 0 0 0.516732 0 0 0 0 0.516732 0 0 0 0.25 0"/>
<feBlend mode="normal" in2="BackgroundImageFix" result="effect1_dropShadow_689_39825"/>
<feBlend mode="normal" in="SourceGraphic" in2="effect1_dropShadow_689_39825" result="shape"/>
</filter>
<clipPath id="clip0_689_39825">
<rect width="82.125" height="18" fill="white" transform="translate(0.5)"/>
</clipPath>
</defs>
</svg>
