<svg width="15" height="14" viewBox="0 0 15 14" fill="none" xmlns="http://www.w3.org/2000/svg">
<g id="Task Checklist Add" clip-path="url(#clip0_1583_87116)">
<g id="menos">
<path id="Vector" d="M7.52366 13.7101C3.70795 13.6928 0.660002 10.6159 0.67732 6.81178C0.694637 3.02493 3.783 -0.0172443 7.58139 7.35719e-05C11.3567 0.0173915 14.3873 3.11152 14.37 6.92723C14.3527 10.6564 11.2528 13.7274 7.52366 13.7101ZM7.55252 0.727425C4.18131 0.710107 1.42199 3.42902 1.38735 6.80023C1.35272 10.1772 4.09472 12.9596 7.47171 12.9827C10.866 13.0058 13.6426 10.2811 13.66 6.90991C13.6831 3.50406 10.9526 0.744743 7.55252 0.727425ZM4.46994 6.49428C4.38335 6.49428 4.29676 6.48851 4.21017 6.50583C4.02545 6.54046 3.92731 6.66746 3.92154 6.84641C3.91577 7.03114 4.01967 7.15236 4.19862 7.19854C4.27944 7.21586 4.3718 7.21009 4.45839 7.21009C6.50191 7.21009 8.55119 7.21009 10.5947 7.21009C10.6813 7.21009 10.7679 7.21586 10.8545 7.19854C11.0392 7.15814 11.1316 7.03114 11.1316 6.84641C11.1316 6.67324 11.0334 6.55201 10.866 6.5116C10.7737 6.48851 10.6755 6.49428 10.5774 6.49428C9.5614 6.49428 8.53964 6.49428 7.52366 6.49428C6.50768 6.49428 5.48592 6.49428 4.46994 6.49428Z" fill="black"/>
</g>
</g>
<defs>
<clipPath id="clip0_1583_87116">
<rect width="13.7143" height="13.7143" fill="white" transform="translate(0.666504)"/>
</clipPath>
</defs>
</svg>
