<svg width="22" height="22" viewBox="0 0 22 22" fill="none" xmlns="http://www.w3.org/2000/svg">
<path d="M16.8988 18.4515H5.5645C5.46288 18.4515 5.36224 18.4315 5.26834 18.3927C5.17444 18.3538 5.08912 18.2969 5.01724 18.225C4.94537 18.1532 4.88835 18.0679 4.84945 17.974C4.81055 17.8801 4.79053 17.7795 4.79053 17.6779V7.61919L7.88568 4.52441H16.3964C16.6016 4.52441 16.7984 4.60591 16.9436 4.75097C17.0887 4.89604 17.1703 5.09281 17.1704 5.29802V9.16677" fill="url(#paint0_linear_589_104946)"/>
<path d="M16.8988 18.4515H5.5645C5.46288 18.4515 5.36224 18.4315 5.26834 18.3927C5.17444 18.3538 5.08912 18.2969 5.01724 18.225C4.94537 18.1532 4.88835 18.0679 4.84945 17.974C4.81055 17.8801 4.79053 17.7795 4.79053 17.6779V7.61919L7.88568 4.52441H16.3964C16.6016 4.52441 16.7984 4.60591 16.9436 4.75097C17.0887 4.89604 17.1703 5.09281 17.1704 5.29802V9.16677V18.4515H16.8988Z" stroke="#1A1A1A" stroke-width="0.742776" stroke-linecap="round" stroke-linejoin="round"/>
<path d="M14.0753 13.8091H7.88574V18.4514H14.0753V13.8091Z" fill="white" stroke="#1A1A1A" stroke-width="0.742776" stroke-linecap="round" stroke-linejoin="round"/>
<defs>
<linearGradient id="paint0_linear_589_104946" x1="10.9805" y1="4.52441" x2="10.9805" y2="18.4515" gradientUnits="userSpaceOnUse">
<stop stop-color="#408CBE"/>
<stop offset="1" stop-color="#C8DADE"/>
</linearGradient>
</defs>
</svg>
